<svg viewBox="0 0 34 34" fill="none" xmlns="http://www.w3.org/2000/svg">
  <path
    d="M10.625 30.8125C11.7986 30.8125 12.75 29.8611 12.75 28.6875C12.75 27.5139 11.7986 26.5625 10.625 26.5625C9.45139 26.5625 8.5 27.5139 8.5 28.6875C8.5 29.8611 9.45139 30.8125 10.625 30.8125Z"
    fill="#7F23E1" />
  <path
    d="M24.4375 30.8125C25.6111 30.8125 26.5625 29.8611 26.5625 28.6875C26.5625 27.5139 25.6111 26.5625 24.4375 26.5625C23.2639 26.5625 22.3125 27.5139 22.3125 28.6875C22.3125 29.8611 23.2639 30.8125 24.4375 30.8125Z"
    fill="#7F23E1" />
  <path
    d="M5.61797 9.5625H29.4445L25.9383 21.8344C25.8132 22.2798 25.5453 22.6717 25.1758 22.9501C24.8063 23.2284 24.3556 23.3777 23.893 23.375H11.1695C10.7069 23.3777 10.2562 23.2284 9.88672 22.9501C9.51721 22.6717 9.24932 22.2798 9.12422 21.8344L4.31641 5.02031C4.25287 4.79819 4.11867 4.60283 3.93413 4.46382C3.7496 4.32482 3.52478 4.24976 3.29375 4.25H1.0625"
    stroke="#7F23E1" stroke-width="2.125" stroke-linecap="round" stroke-linejoin="round" />
</svg>
