<svg viewBox="0 0 33 28" fill="none" xmlns="http://www.w3.org/2000/svg">
  <path
    d="M23.8661 0C20.8239 0 18.1603 1.29531 16.5 3.48478C14.8397 1.29531 12.1761 0 9.13393 0C6.7123 0.00270255 4.39063 0.956397 2.67828 2.65185C0.965928 4.34731 0.00272948 6.64606 0 9.0438C0 19.2545 15.2905 27.5194 15.9417 27.8607C16.1133 27.9522 16.3051 28 16.5 28C16.6949 28 16.8867 27.9522 17.0583 27.8607C17.7095 27.5194 33 19.2545 33 9.0438C32.9973 6.64606 32.0341 4.34731 30.3217 2.65185C28.6094 0.956397 26.2877 0.00270255 23.8661 0ZM16.5 25.4977C13.8099 23.9456 2.35714 16.8754 2.35714 9.0438C2.35948 7.26493 3.07421 5.55958 4.3446 4.30173C5.61499 3.04388 7.33733 2.3362 9.13393 2.33388C11.9993 2.33388 14.4051 3.84507 15.4098 6.27231C15.4986 6.48634 15.6497 6.6694 15.8438 6.79824C16.0379 6.92707 16.2663 6.99585 16.5 6.99585C16.7337 6.99585 16.9621 6.92707 17.1562 6.79824C17.3503 6.6694 17.5014 6.48634 17.5902 6.27231C18.5949 3.8407 21.0007 2.33388 23.8661 2.33388C25.6627 2.3362 27.385 3.04388 28.6554 4.30173C29.9258 5.55958 30.6405 7.26493 30.6429 9.0438C30.6429 16.8638 19.1871 23.9442 16.5 25.4977Z"
    fill="#7F23E1" />
</svg>
