<svg width="12" height="15" viewBox="0 0 12 15" fill="none" xmlns="http://www.w3.org/2000/svg">
<path fill-rule="evenodd" clip-rule="evenodd" d="M2.64938 6.35072C2.64938 4.4467 4.1495 2.90319 6 2.90319C7.8505 2.90319 9.35062 4.4467 9.35062 6.35072C9.35062 8.25474 7.8505 9.79826 6 9.79826C4.1495 9.79826 2.64938 8.25474 2.64938 6.35072ZM6 3.99188C4.73387 3.99188 3.70747 5.04797 3.70747 6.35072C3.70747 7.65347 4.73387 8.70956 6 8.70956C7.26613 8.70956 8.29253 7.65347 8.29253 6.35072C8.29253 5.04797 7.26613 3.99188 6 3.99188Z" fill="#2B2B2B"/>
<path fill-rule="evenodd" clip-rule="evenodd" d="M0.0213365 5.52103C0.271277 2.40111 2.80516 0 5.84766 0H6.15234C9.19484 0 11.7287 2.40111 11.9787 5.52103C12.1129 7.197 11.6098 8.86117 10.5752 10.163L7.19422 14.4175C6.577 15.1942 5.42301 15.1942 4.80579 14.4175L1.42479 10.163C0.390217 8.86118 -0.112927 7.197 0.0213365 5.52103ZM5.84766 1.0887C3.35583 1.0887 1.28055 3.05523 1.07585 5.61047C0.964107 7.00533 1.38286 8.39038 2.24391 9.47388L5.6249 13.7283C5.81877 13.9723 6.18123 13.9723 6.3751 13.7283L9.75609 9.47388C10.6171 8.39038 11.0359 7.00533 10.9241 5.61047C10.7194 3.05523 8.64418 1.0887 6.15234 1.0887H5.84766Z" fill="#2B2B2B"/>
</svg>
